<svg xmlns="http://www.w3.org/2000/svg" width="16" height="16" viewBox="0 0 16 16" fill="none">
<g clipPath="url(#clip0_2658_28059)">
<path d="M2.66797 8.00065C2.66797 8.17746 2.73821 8.34703 2.86323 8.47206C2.98826 8.59708 3.15782 8.66732 3.33464 8.66732C3.51145 8.66732 3.68102 8.59708 3.80604 8.47206C3.93106 8.34703 4.0013 8.17746 4.0013 8.00065C4.0013 7.82384 3.93106 7.65427 3.80604 7.52925C3.68102 7.40422 3.51145 7.33398 3.33464 7.33398C3.15782 7.33398 2.98826 7.40422 2.86323 7.52925C2.73821 7.65427 2.66797 7.82384 2.66797 8.00065Z" stroke="#0F172A" strokeWidth="1.33333" strokeLinecap="round" strokeLinejoin="round"/>
<path d="M7.33203 8.00065C7.33203 8.17746 7.40227 8.34703 7.52729 8.47206C7.65232 8.59708 7.82189 8.66732 7.9987 8.66732C8.17551 8.66732 8.34508 8.59708 8.4701 8.47206C8.59513 8.34703 8.66536 8.17746 8.66536 8.00065C8.66536 7.82384 8.59513 7.65427 8.4701 7.52925C8.34508 7.40422 8.17551 7.33398 7.9987 7.33398C7.82189 7.33398 7.65232 7.40422 7.52729 7.52925C7.40227 7.65427 7.33203 7.82384 7.33203 8.00065Z" stroke="#0F172A" strokeWidth="1.33333" strokeLinecap="round" strokeLinejoin="round"/>
<path d="M12 8.00065C12 8.17746 12.0702 8.34703 12.1953 8.47206C12.3203 8.59708 12.4899 8.66732 12.6667 8.66732C12.8435 8.66732 13.013 8.59708 13.1381 8.47206C13.2631 8.34703 13.3333 8.17746 13.3333 8.00065C13.3333 7.82384 13.2631 7.65427 13.1381 7.52925C13.013 7.40422 12.8435 7.33398 12.6667 7.33398C12.4899 7.33398 12.3203 7.40422 12.1953 7.52925C12.0702 7.65427 12 7.82384 12 8.00065Z" stroke="#0F172A" strokeWidth="1.33333" strokeLinecap="round" strokeLinejoin="round"/>
</g>
<defs>
<clipPath id="clip0_2658_28059">
<rect width="16" height="16" fill="white"/>
</clipPath>
</defs>
</svg>