<svg class="h-full" style="width: 36rem;" viewBox="0 0 230 140" fill="none" xmlns="http://www.w3.org/2000/svg">
    <path d="M113.219 117.203H122.438L119.82 109.195C119.638 108.622 119.43 107.984 119.195 107.281C118.987 106.578 118.753 105.81 118.492 104.977C118.258 104.117 118.076 103.479 117.945 103.062H117.711C117.633 103.323 117.008 105.367 115.836 109.195L113.219 117.203ZM103.844 129L115.016 98.1016H120.68L131.812 129H126.344L123.805 121.344H111.852L109.312 129H103.844ZM132.672 124.312L136.227 122.242C137.789 124.534 139.82 125.68 142.32 125.68C143.544 125.68 144.508 125.445 145.211 124.977C145.94 124.482 146.305 123.831 146.305 123.023C146.305 122.372 146.005 121.799 145.406 121.305C144.833 120.81 144.221 120.445 143.57 120.211C142.919 119.951 141.943 119.612 140.641 119.195C140.406 119.117 140.237 119.065 140.133 119.039C139.195 118.727 138.401 118.427 137.75 118.141C137.125 117.828 136.461 117.424 135.758 116.93C135.055 116.409 134.521 115.771 134.156 115.016C133.792 114.234 133.609 113.336 133.609 112.32C133.609 110.341 134.443 108.753 136.109 107.555C137.776 106.357 139.846 105.758 142.32 105.758C144.169 105.758 145.914 106.253 147.555 107.242C149.195 108.206 150.419 109.443 151.227 110.953L147.945 112.945C146.409 110.836 144.547 109.781 142.359 109.781C141.161 109.781 140.237 110.029 139.586 110.523C138.961 110.992 138.648 111.617 138.648 112.398C138.648 113.049 138.922 113.635 139.469 114.156C140.042 114.651 140.628 115.016 141.227 115.25C141.826 115.484 142.672 115.784 143.766 116.148C144.052 116.227 144.26 116.292 144.391 116.344C149.026 117.828 151.344 120.068 151.344 123.062C151.344 124.911 150.562 126.487 149 127.789C147.464 129.065 145.276 129.703 142.438 129.703C140.25 129.703 138.297 129.221 136.578 128.258C134.885 127.294 133.583 125.979 132.672 124.312ZM158.883 122.672C158.883 123.505 159.208 124.208 159.859 124.781C160.536 125.328 161.422 125.602 162.516 125.602C164.078 125.602 165.406 125.081 166.5 124.039C167.62 122.997 168.18 121.63 168.18 119.938V117.867C166.982 118.154 165.536 118.427 163.844 118.688C160.536 119.208 158.883 120.536 158.883 122.672ZM153.883 123.102C153.883 118.857 157.034 116.266 163.336 115.328C165.628 114.99 167.242 114.677 168.18 114.391V113.18C168.18 112.086 167.789 111.227 167.008 110.602C166.227 109.977 165.185 109.664 163.883 109.664C161.409 109.664 159.273 110.68 157.477 112.711L154.469 110.133C155.641 108.753 157.034 107.685 158.648 106.93C160.289 106.148 162.008 105.758 163.805 105.758C167.164 105.758 169.56 106.578 170.992 108.219C172.424 109.833 173.141 112.099 173.141 115.016V129H168.336V126.188C167.867 127.151 167.047 127.984 165.875 128.688C164.729 129.365 163.375 129.703 161.812 129.703C159.339 129.703 157.398 129.091 155.992 127.867C154.586 126.643 153.883 125.055 153.883 123.102ZM178.219 129V106.461H183.023V109.312H183.062C183.453 108.479 184.169 107.685 185.211 106.93C186.279 106.148 187.646 105.758 189.312 105.758C191.552 105.758 193.336 106.448 194.664 107.828C195.992 109.208 196.656 111.435 196.656 114.508V129H191.695V115.172C191.695 111.708 190.523 109.977 188.18 109.977C186.747 109.977 185.549 110.549 184.586 111.695C183.648 112.841 183.18 114.26 183.18 115.953V129H178.219ZM205.406 122.672C205.406 123.505 205.732 124.208 206.383 124.781C207.06 125.328 207.945 125.602 209.039 125.602C210.602 125.602 211.93 125.081 213.023 124.039C214.143 122.997 214.703 121.63 214.703 119.938V117.867C213.505 118.154 212.06 118.427 210.367 118.688C207.06 119.208 205.406 120.536 205.406 122.672ZM200.406 123.102C200.406 118.857 203.557 116.266 209.859 115.328C212.151 114.99 213.766 114.677 214.703 114.391V113.18C214.703 112.086 214.312 111.227 213.531 110.602C212.75 109.977 211.708 109.664 210.406 109.664C207.932 109.664 205.797 110.68 204 112.711L200.992 110.133C202.164 108.753 203.557 107.685 205.172 106.93C206.812 106.148 208.531 105.758 210.328 105.758C213.688 105.758 216.083 106.578 217.516 108.219C218.948 109.833 219.664 112.099 219.664 115.016V129H214.859V126.188C214.391 127.151 213.57 127.984 212.398 128.688C211.253 129.365 209.898 129.703 208.336 129.703C205.862 129.703 203.922 129.091 202.516 127.867C201.109 126.643 200.406 125.055 200.406 123.102Z" fill="white"/>
    <path d="M121.141 84L125.945 77.0625L121.375 70.4766H124.961L126.695 73.4062C127.133 74.1875 127.445 74.7344 127.633 75.0469H127.727C127.977 74.5938 128.281 74.0469 128.641 73.4062L130.375 70.4766H133.984L129.414 77.0625L134.242 84H130.727L128.734 80.7422C128.609 80.5391 128.438 80.2578 128.219 79.8984C128 79.5391 127.836 79.2578 127.727 79.0547H127.633C127.57 79.1641 127.234 79.7266 126.625 80.7422L124.633 84H121.141Z" fill="white"/>
    <path d="M0.8125 2.5625H9.5L14.5625 29.8125C15.3542 34.4792 16.0625 38.8958 16.6875 43.0625H17C18.25 36.1458 19.0625 31.7292 19.4375 29.8125L25.25 2.5625H33.5625L39.4375 29.8125C39.7292 31.1875 40.1667 33.5625 40.75 36.9375C41.375 40.2708 41.75 42.3125 41.875 43.0625H42.1875C42.3958 41.7708 42.75 39.5625 43.25 36.4375C43.7917 33.3125 44.1667 31.1042 44.375 29.8125L49.375 2.5625H58.0625L46.9375 52H37.5L31.875 25.125C30.4167 17.3333 29.6458 13.1458 29.5625 12.5625H29.3125C29.3125 12.6875 28.5417 16.875 27 25.125L21.375 52H12L0.8125 2.5625ZM59.8125 33.8125C59.8125 28.0208 61.3958 23.4167 64.5625 20C67.7708 16.5417 71.7917 14.8125 76.625 14.8125C81.375 14.8125 85.2917 16.5417 88.375 20C91.4583 23.4583 93 27.9583 93 33.5C93 34.5833 92.9375 35.6458 92.8125 36.6875H67.8125C67.8125 39.4375 68.625 41.8125 70.25 43.8125C71.9167 45.7708 74.1875 46.75 77.0625 46.75C79.0625 46.75 80.8125 46.2708 82.3125 45.3125C83.8542 44.3125 85.0208 43.0417 85.8125 41.5L92.4375 43.75C91.2708 46.4167 89.375 48.6458 86.75 50.4375C84.125 52.2292 80.8542 53.125 76.9375 53.125C71.8958 53.125 67.7708 51.375 64.5625 47.875C61.3958 44.375 59.8125 39.6875 59.8125 33.8125ZM67.9375 31.125H84.9375C84.9375 28.375 84.2083 26.0417 82.75 24.125C81.2917 22.1667 79.25 21.1875 76.625 21.1875C74 21.1875 71.8958 22.1875 70.3125 24.1875C68.7708 26.1458 67.9792 28.4583 67.9375 31.125ZM100.125 52V0.9375H108V52H100.125ZM123.125 41.875C123.125 43.2083 123.646 44.3333 124.688 45.25C125.771 46.125 127.188 46.5625 128.938 46.5625C131.438 46.5625 133.562 45.7292 135.312 44.0625C137.104 42.3958 138 40.2083 138 37.5V34.1875C136.083 34.6458 133.771 35.0833 131.062 35.5C125.771 36.3333 123.125 38.4583 123.125 41.875ZM115.125 42.5625C115.125 35.7708 120.167 31.625 130.25 30.125C133.917 29.5833 136.5 29.0833 138 28.625V26.6875C138 24.9375 137.375 23.5625 136.125 22.5625C134.875 21.5625 133.208 21.0625 131.125 21.0625C127.167 21.0625 123.75 22.6875 120.875 25.9375L116.062 21.8125C117.938 19.6042 120.167 17.8958 122.75 16.6875C125.375 15.4375 128.125 14.8125 131 14.8125C136.375 14.8125 140.208 16.125 142.5 18.75C144.792 21.3333 145.938 24.9583 145.938 29.625V52H138.25V47.5C137.5 49.0417 136.188 50.375 134.312 51.5C132.479 52.5833 130.312 53.125 127.812 53.125C123.854 53.125 120.75 52.1458 118.5 50.1875C116.25 48.2292 115.125 45.6875 115.125 42.5625Z" fill="white"/>
</svg>