<svg viewBox="0 0 178 71" fill="none" xmlns="http://www.w3.org/2000/svg">
    <path d="M0.40625 1.28125H4.75L7.28125 14.9062C7.67708 17.2396 8.03125 19.4479 8.34375 21.5312H8.5C9.125 18.0729 9.53125 15.8646 9.71875 14.9062L12.625 1.28125H16.7812L19.7188 14.9062C19.8646 15.5938 20.0833 16.7812 20.375 18.4688C20.6875 20.1354 20.875 21.1562 20.9375 21.5312H21.0938C21.1979 20.8854 21.375 19.7812 21.625 18.2188C21.8958 16.6562 22.0833 15.5521 22.1875 14.9062L24.6875 1.28125H29.0312L23.4688 26H18.75L15.9375 12.5625C15.2083 8.66667 14.8229 6.57292 14.7812 6.28125H14.6562C14.6562 6.34375 14.2708 8.4375 13.5 12.5625L10.6875 26H6L0.40625 1.28125ZM29.9062 16.9062C29.9062 14.0104 30.6979 11.7083 32.2812 10C33.8854 8.27083 35.8958 7.40625 38.3125 7.40625C40.6875 7.40625 42.6458 8.27083 44.1875 10C45.7292 11.7292 46.5 13.9792 46.5 16.75C46.5 17.2917 46.4688 17.8229 46.4062 18.3438H33.9062C33.9062 19.7188 34.3125 20.9062 35.125 21.9062C35.9583 22.8854 37.0938 23.375 38.5312 23.375C39.5312 23.375 40.4062 23.1354 41.1562 22.6562C41.9271 22.1562 42.5104 21.5208 42.9062 20.75L46.2188 21.875C45.6354 23.2083 44.6875 24.3229 43.375 25.2188C42.0625 26.1146 40.4271 26.5625 38.4688 26.5625C35.9479 26.5625 33.8854 25.6875 32.2812 23.9375C30.6979 22.1875 29.9062 19.8438 29.9062 16.9062ZM33.9688 15.5625H42.4688C42.4688 14.1875 42.1042 13.0208 41.375 12.0625C40.6458 11.0833 39.625 10.5938 38.3125 10.5938C37 10.5938 35.9479 11.0938 35.1562 12.0938C34.3854 13.0729 33.9896 14.2292 33.9688 15.5625ZM50.0625 26V0.46875H54V26H50.0625ZM61.5625 20.9375C61.5625 21.6042 61.8229 22.1667 62.3438 22.625C62.8854 23.0625 63.5938 23.2812 64.4688 23.2812C65.7188 23.2812 66.7812 22.8646 67.6562 22.0312C68.5521 21.1979 69 20.1042 69 18.75V17.0938C68.0417 17.3229 66.8854 17.5417 65.5312 17.75C62.8854 18.1667 61.5625 19.2292 61.5625 20.9375ZM57.5625 21.2812C57.5625 17.8854 60.0833 15.8125 65.125 15.0625C66.9583 14.7917 68.25 14.5417 69 14.3125V13.3438C69 12.4688 68.6875 11.7812 68.0625 11.2812C67.4375 10.7812 66.6042 10.5312 65.5625 10.5312C63.5833 10.5312 61.875 11.3438 60.4375 12.9688L58.0312 10.9062C58.9688 9.80208 60.0833 8.94792 61.375 8.34375C62.6875 7.71875 64.0625 7.40625 65.5 7.40625C68.1875 7.40625 70.1042 8.0625 71.25 9.375C72.3958 10.6667 72.9688 12.4792 72.9688 14.8125V26H69.125V23.75C68.75 24.5208 68.0938 25.1875 67.1562 25.75C66.2396 26.2917 65.1562 26.5625 63.9062 26.5625C61.9271 26.5625 60.375 26.0729 59.25 25.0938C58.125 24.1146 57.5625 22.8438 57.5625 21.2812Z" fill="#5244ED"/>
    <path d="M7.78125 63V38.2812H12.8125L17.1562 49.7812C17.4688 50.6354 17.8646 51.8021 18.3438 53.2812C18.8229 54.7396 19.1354 55.6875 19.2812 56.125H19.4062C20.4479 53.1042 21.1875 50.9896 21.625 49.7812L25.875 38.2812H30.9688V63H26.9062V51.7812C26.9062 49.9062 27.0521 47.3646 27.3438 44.1562H27.2188L25.4375 49.4062L20.9062 61.5938H17.8438L13.375 49.4062L11.5312 44.125H11.375C11.7083 47.125 11.875 49.6771 11.875 51.7812V63H7.78125ZM38.9062 54C38.9062 56.0833 39.3333 57.6354 40.1875 58.6562C41.0417 59.6771 42.0417 60.1875 43.1875 60.1875C44.3125 60.1875 45.3021 59.6771 46.1562 58.6562C47.0104 57.6354 47.4375 56.0833 47.4375 54C47.4375 51.875 47.0104 50.3125 46.1562 49.3125C45.3021 48.2917 44.3125 47.7812 43.1875 47.7812C42.0625 47.7812 41.0625 48.2917 40.1875 49.3125C39.3333 50.3125 38.9062 51.875 38.9062 54ZM34.8438 54C34.8438 51.3125 35.5521 49.0417 36.9688 47.1875C38.3854 45.3333 40.4583 44.4062 43.1875 44.4062C45.8958 44.4062 47.9583 45.3333 49.375 47.1875C50.7917 49.0417 51.5 51.3125 51.5 54C51.5 54.8333 51.4167 55.6667 51.25 56.5C51.1042 57.3333 50.8333 58.1875 50.4375 59.0625C50.0417 59.9167 49.5417 60.6771 48.9375 61.3438C48.3333 61.9896 47.5312 62.5208 46.5312 62.9375C45.5521 63.3542 44.4375 63.5625 43.1875 63.5625C41.9583 63.5625 40.8438 63.3646 39.8438 62.9688C38.8646 62.5521 38.0625 62.0312 37.4375 61.4062C36.8333 60.7604 36.3229 60.0104 35.9062 59.1562C35.5104 58.2812 35.2292 57.4271 35.0625 56.5938C34.9167 55.7396 34.8438 54.875 34.8438 54ZM54.75 63V44.9688H58.5938V47.25H58.625C58.9375 46.5833 59.5104 45.9479 60.3438 45.3438C61.1979 44.7188 62.2917 44.4062 63.625 44.4062C65.4167 44.4062 66.8438 44.9583 67.9062 46.0625C68.9688 47.1667 69.5 48.9479 69.5 51.4062V63H65.5312V51.9375C65.5312 49.1667 64.5938 47.7812 62.7188 47.7812C61.5729 47.7812 60.6146 48.2396 59.8438 49.1562C59.0938 50.0729 58.7188 51.2083 58.7188 52.5625V63H54.75ZM73.7812 42.2812V37.9375H78.0312V42.2812H73.7812ZM73.9688 63V44.9688H77.875V63H73.9688ZM80.9688 48.3438V44.9688H83.75V39.625H87.6875V44.9688H91.8125V48.3438H87.6875V57.2188C87.6875 58.0729 87.8542 58.6875 88.1875 59.0625C88.5417 59.4375 89.0729 59.625 89.7812 59.625H91.8438V63H89.2812C85.5938 63 83.75 61.1667 83.75 57.5V48.3438H80.9688ZM97.9688 54C97.9688 56.0833 98.3958 57.6354 99.25 58.6562C100.104 59.6771 101.104 60.1875 102.25 60.1875C103.375 60.1875 104.365 59.6771 105.219 58.6562C106.073 57.6354 106.5 56.0833 106.5 54C106.5 51.875 106.073 50.3125 105.219 49.3125C104.365 48.2917 103.375 47.7812 102.25 47.7812C101.125 47.7812 100.125 48.2917 99.25 49.3125C98.3958 50.3125 97.9688 51.875 97.9688 54ZM93.9062 54C93.9062 51.3125 94.6146 49.0417 96.0312 47.1875C97.4479 45.3333 99.5208 44.4062 102.25 44.4062C104.958 44.4062 107.021 45.3333 108.438 47.1875C109.854 49.0417 110.562 51.3125 110.562 54C110.562 54.8333 110.479 55.6667 110.312 56.5C110.167 57.3333 109.896 58.1875 109.5 59.0625C109.104 59.9167 108.604 60.6771 108 61.3438C107.396 61.9896 106.594 62.5208 105.594 62.9375C104.615 63.3542 103.5 63.5625 102.25 63.5625C101.021 63.5625 99.9062 63.3646 98.9062 62.9688C97.9271 62.5521 97.125 62.0312 96.5 61.4062C95.8958 60.7604 95.3854 60.0104 94.9688 59.1562C94.5729 58.2812 94.2917 57.4271 94.125 56.5938C93.9792 55.7396 93.9062 54.875 93.9062 54ZM113.812 63V44.9688H117.625V46.9062C118.021 46.2396 118.583 45.6562 119.312 45.1562C120.062 44.6562 120.948 44.4062 121.969 44.4062C122.927 44.4062 123.708 44.5417 124.312 44.8125V48.4062C123.521 48.1562 122.74 48.0312 121.969 48.0312C120.615 48.0312 119.573 48.5625 118.844 49.625C118.135 50.6667 117.781 52.0625 117.781 53.8125V63H113.812ZM126.594 42.2812V37.9375H130.844V42.2812H126.594ZM126.781 63V44.9688H130.688V63H126.781ZM135.375 63V44.9688H139.219V47.25H139.25C139.562 46.5833 140.135 45.9479 140.969 45.3438C141.823 44.7188 142.917 44.4062 144.25 44.4062C146.042 44.4062 147.469 44.9583 148.531 46.0625C149.594 47.1667 150.125 48.9479 150.125 51.4062V63H146.156V51.9375C146.156 49.1667 145.219 47.7812 143.344 47.7812C142.198 47.7812 141.24 48.2396 140.469 49.1562C139.719 50.0729 139.344 51.2083 139.344 52.5625V63H135.375ZM157.281 53.6562C157.281 55.4896 157.635 56.9167 158.344 57.9375C159.073 58.9583 160.031 59.4688 161.219 59.4688C162.385 59.4688 163.323 58.9688 164.031 57.9688C164.74 56.9688 165.094 55.5208 165.094 53.625C165.094 51.7708 164.74 50.3333 164.031 49.3125C163.323 48.2917 162.396 47.7812 161.25 47.7812C160.042 47.7812 159.073 48.3125 158.344 49.375C157.635 50.4375 157.281 51.8646 157.281 53.6562ZM153.25 53.6875C153.25 50.875 153.948 48.625 155.344 46.9375C156.74 45.25 158.531 44.4062 160.719 44.4062C161.823 44.4062 162.75 44.6875 163.5 45.25C164.271 45.7917 164.812 46.3958 165.125 47.0625V44.9688H169.062V60.5C169.062 63.8958 168.396 66.4062 167.062 68.0312C165.75 69.6771 163.719 70.5 160.969 70.5C157.948 70.5 155.604 69.3333 153.938 67L156.562 65.1875C157.771 66.6042 159.26 67.3125 161.031 67.3125C162.177 67.3125 163.125 66.875 163.875 66C164.625 65.125 165.031 63.9792 165.094 62.5625C165.135 61.7292 165.156 61.0417 165.156 60.5C164.76 61.1667 164.167 61.7292 163.375 62.1875C162.583 62.625 161.74 62.8438 160.844 62.8438C158.573 62.8438 156.74 62.0104 155.344 60.3438C153.948 58.6562 153.25 56.4375 153.25 53.6875Z" fill="#5244ED"/>
    <path d="M92.375 16.5625H99.75L97.6562 10.1562C97.5104 9.69792 97.3438 9.1875 97.1562 8.625C96.9896 8.0625 96.8021 7.44792 96.5938 6.78125C96.4062 6.09375 96.2604 5.58333 96.1562 5.25H95.9688C95.9062 5.45833 95.4062 7.09375 94.4688 10.1562L92.375 16.5625ZM84.875 26L93.8125 1.28125H98.3438L107.25 26H102.875L100.844 19.875H91.2812L89.25 26H84.875ZM107.938 22.25L110.781 20.5938C112.031 22.4271 113.656 23.3438 115.656 23.3438C116.635 23.3438 117.406 23.1562 117.969 22.7812C118.552 22.3854 118.844 21.8646 118.844 21.2188C118.844 20.6979 118.604 20.2396 118.125 19.8438C117.667 19.4479 117.177 19.1562 116.656 18.9688C116.135 18.7604 115.354 18.4896 114.312 18.1562C114.125 18.0938 113.99 18.0521 113.906 18.0312C113.156 17.7812 112.521 17.5417 112 17.3125C111.5 17.0625 110.969 16.7396 110.406 16.3438C109.844 15.9271 109.417 15.4167 109.125 14.8125C108.833 14.1875 108.688 13.4688 108.688 12.6562C108.688 11.0729 109.354 9.80208 110.688 8.84375C112.021 7.88542 113.677 7.40625 115.656 7.40625C117.135 7.40625 118.531 7.80208 119.844 8.59375C121.156 9.36458 122.135 10.3542 122.781 11.5625L120.156 13.1562C118.927 11.4688 117.438 10.625 115.688 10.625C114.729 10.625 113.99 10.8229 113.469 11.2188C112.969 11.5938 112.719 12.0938 112.719 12.7188C112.719 13.2396 112.938 13.7083 113.375 14.125C113.833 14.5208 114.302 14.8125 114.781 15C115.26 15.1875 115.938 15.4271 116.812 15.7188C117.042 15.7812 117.208 15.8333 117.312 15.875C121.021 17.0625 122.875 18.8542 122.875 21.25C122.875 22.7292 122.25 23.9896 121 25.0312C119.771 26.0521 118.021 26.5625 115.75 26.5625C114 26.5625 112.438 26.1771 111.062 25.4062C109.708 24.6354 108.667 23.5833 107.938 22.25ZM128.906 20.9375C128.906 21.6042 129.167 22.1667 129.688 22.625C130.229 23.0625 130.938 23.2812 131.812 23.2812C133.062 23.2812 134.125 22.8646 135 22.0312C135.896 21.1979 136.344 20.1042 136.344 18.75V17.0938C135.385 17.3229 134.229 17.5417 132.875 17.75C130.229 18.1667 128.906 19.2292 128.906 20.9375ZM124.906 21.2812C124.906 17.8854 127.427 15.8125 132.469 15.0625C134.302 14.7917 135.594 14.5417 136.344 14.3125V13.3438C136.344 12.4688 136.031 11.7812 135.406 11.2812C134.781 10.7812 133.948 10.5312 132.906 10.5312C130.927 10.5312 129.219 11.3438 127.781 12.9688L125.375 10.9062C126.312 9.80208 127.427 8.94792 128.719 8.34375C130.031 7.71875 131.406 7.40625 132.844 7.40625C135.531 7.40625 137.448 8.0625 138.594 9.375C139.74 10.6667 140.312 12.4792 140.312 14.8125V26H136.469V23.75C136.094 24.5208 135.438 25.1875 134.5 25.75C133.583 26.2917 132.5 26.5625 131.25 26.5625C129.271 26.5625 127.719 26.0729 126.594 25.0938C125.469 24.1146 124.906 22.8438 124.906 21.2812ZM144.375 26V7.96875H148.219V10.25H148.25C148.562 9.58333 149.135 8.94792 149.969 8.34375C150.823 7.71875 151.917 7.40625 153.25 7.40625C155.042 7.40625 156.469 7.95833 157.531 9.0625C158.594 10.1667 159.125 11.9479 159.125 14.4062V26H155.156V14.9375C155.156 12.1667 154.219 10.7812 152.344 10.7812C151.198 10.7812 150.24 11.2396 149.469 12.1562C148.719 13.0729 148.344 14.2083 148.344 15.5625V26H144.375ZM166.125 20.9375C166.125 21.6042 166.385 22.1667 166.906 22.625C167.448 23.0625 168.156 23.2812 169.031 23.2812C170.281 23.2812 171.344 22.8646 172.219 22.0312C173.115 21.1979 173.562 20.1042 173.562 18.75V17.0938C172.604 17.3229 171.448 17.5417 170.094 17.75C167.448 18.1667 166.125 19.2292 166.125 20.9375ZM162.125 21.2812C162.125 17.8854 164.646 15.8125 169.688 15.0625C171.521 14.7917 172.812 14.5417 173.562 14.3125V13.3438C173.562 12.4688 173.25 11.7812 172.625 11.2812C172 10.7812 171.167 10.5312 170.125 10.5312C168.146 10.5312 166.438 11.3438 165 12.9688L162.594 10.9062C163.531 9.80208 164.646 8.94792 165.938 8.34375C167.25 7.71875 168.625 7.40625 170.062 7.40625C172.75 7.40625 174.667 8.0625 175.812 9.375C176.958 10.6667 177.531 12.4792 177.531 14.8125V26H173.688V23.75C173.312 24.5208 172.656 25.1875 171.719 25.75C170.802 26.2917 169.719 26.5625 168.469 26.5625C166.49 26.5625 164.938 26.0729 163.812 25.0938C162.688 24.1146 162.125 22.8438 162.125 21.2812Z" fill="#DB657C"/>
</svg>