<svg xmlns="http://www.w3.org/2000/svg" width="20" height="21" viewBox="0 0 20 21" fill="none">
<path d="M6.28033 5.86185C5.98744 5.56167 5.51256 5.56167 5.21967 5.86185C4.92678 6.16203 4.92678 6.64872 5.21967 6.9489L8.93934 10.7611L5.21967 14.5733C4.92678 14.8735 4.92678 15.3602 5.21967 15.6603C5.51256 15.9605 5.98744 15.9605 6.28033 15.6603L10 11.8481L13.7197 15.6603C14.0126 15.9605 14.4874 15.9605 14.7803 15.6603C15.0732 15.3602 15.0732 14.8735 14.7803 14.5733L11.0607 10.7611L14.7803 6.9489C15.0732 6.64872 15.0732 6.16203 14.7803 5.86185C14.4874 5.56167 14.0126 5.56167 13.7197 5.86185L10 9.67405L6.28033 5.86185Z" fill="#0F172A"/>
</svg>