<svg id="Bulb" xmlns="http://www.w3.org/2000/svg" xmlns:xlink="http://www.w3.org/1999/xlink" width="24" height="24" viewBox="0 0 24 24">
  <defs>
    <clipPath id="clip-path">
      <rect id="Rectangle_3883" data-name="Rectangle 3883" width="24" height="24" fill="#fff"/>
    </clipPath>
  </defs>
  <g id="Mask_Group_219" data-name="Mask Group 219" clip-path="url(#clip-path)">
    <path id="Union_32" data-name="Union 32" d="M7.5,24a.808.808,0,1,1,0-1.616H9.577a.808.808,0,0,1,0,1.616ZM6.346,21.461a.808.808,0,1,1,0-1.615h4.384a.808.808,0,1,1,0,1.615Zm4.615-2.6a.232.232,0,0,1-.231-.231V13.188a1.886,1.886,0,0,1,.2-.825l1.229-2.458a.58.58,0,1,0-1.038-.519L9.652,12.363a1.812,1.812,0,0,0-.191.814v5.457a.231.231,0,0,1-.23.231H7.846a.232.232,0,0,1-.231-.231V13.177a1.812,1.812,0,0,0-.19-.814L5.965,9.4a.605.605,0,1,0-1.085.536l1.212,2.423a1.868,1.868,0,0,1,.2.826v5.451a.232.232,0,0,1-.231.231H5.544a.926.926,0,0,1-.923-.882,6.468,6.468,0,0,0-1.079-3.214c-.583-1-1.188-1.154-1.817-2.019h.017A7.868,7.868,0,0,1,0,8.129C0,3.641,4.045,0,8.538,0s8.539,3.635,8.539,8.129a7.868,7.868,0,0,1-1.742,4.621h.005c-.628.865-1.234,1.021-1.817,2.019A6.925,6.925,0,0,0,12.462,18a.923.923,0,0,1-.923.865Z" transform="translate(3.461 0)" fill="#252525"/>
  </g>
</svg>
